<svg xmlns="http://www.w3.org/2000/svg" xmlns:xlink="http://www.w3.org/1999/xlink" x="0px" y="0px" viewBox="20 0 200 40">
    <g id="f0573f86-3cc8-4ad6-bd46-529564f99228">
        <g id="a85a3525-0a1d-4b3f-8747-236f0b4fc0a9">
            <path fill="#FFF" d="M165.2,9.3c-1.3,0-2.3,1-2.3,2.3c0,0,0,0,0,0c0,0.6,0.2,1.3,0.7,1.7c0.4,0.5,1,0.7,1.7,0.7
                c0.6,0,1.2-0.2,1.6-0.7c0.9-0.9,0.9-2.4,0-3.4C166.4,9.6,165.8,9.3,165.2,9.3"></path>
            <polygon fill="#FFF" points="163.2,31.1 167.1,31.1 167.1,15.4 163.2,17.8"></polygon>
            <path fill="#FFF" d="M72.4,21.3c0.4-1,0.9-1.6,1.4-2c0.8-0.6,1.9-0.9,2.9-0.9c1,0,1.9,0.3,2.7,0.8c0.7,0.5,1.3,1.3,1.5,2.1
                L72.4,21.3z M76.5,15c-2.3,0-4.3,0.8-5.8,2.4c-1.5,1.6-2.3,3.6-2.3,6c0,2.3,0.8,4.3,2.3,5.8c1.5,1.6,3.6,2.3,6,2.3
                c1.6,0,3-0.3,4.1-0.8c1.2-0.6,2.2-1.5,3-2.6l-3.3-1.6c-1,1-2.4,1.6-3.8,1.5c-1.2,0-2.2-0.3-3-1c-0.8-0.7-1.3-1.6-1.5-2.7h12.7
                l0-0.8c0-2.6-0.8-4.7-2.3-6.3C81,15.8,79,15,76.5,15"></path>
            <path fill="#FFF" d="M97.8,26.6c-0.8,0.8-1.9,1.3-3.1,1.3c-1.2,0-2.3-0.5-3-1.3c-0.8-0.9-1.2-2-1.2-3.3s0.4-2.5,1.2-3.3
                c0.8-0.8,1.9-1.3,3-1.3c1.2,0,2.3,0.4,3.1,1.3c0.8,0.8,1.2,1.9,1.2,3.3C99.1,24.6,98.6,25.7,97.8,26.6 M98.9,17.1
                c-0.7-0.7-1.4-1.2-2.3-1.6c-0.8-0.4-1.7-0.5-2.7-0.5c-2,0-3.8,0.8-5.2,2.3c-1.4,1.5-2.1,3.5-2.1,5.9c0,2.3,0.7,4.3,2.2,5.9
                c1.5,1.6,3.2,2.4,5.3,2.4c0.9,0,1.7-0.2,2.5-0.5c0.9-0.4,1.6-0.9,2.3-1.6v1.6h3.9V15.4h-3.9V17.1z"></path>
            <path fill="#FFF" d="M110.3,15.6c-0.6,0.4-1.1,1.1-1.5,1.8v-2h-3.4v15.7h3.9v-6.3l0-0.8c0-2.2,0.2-3.7,0.6-4.3
                c0.4-0.8,0.9-1.1,1.5-1.1c0.5,0,1,0.1,1.5,0.3l1.3-3.5c-0.6-0.3-1.2-0.4-1.9-0.4C111.6,15,110.9,15.2,110.3,15.6"></path>
            <path fill="#FFF" d="M124.4,15c-0.8,0-1.5,0.2-2.2,0.4c-0.9,0.4-1.7,0.9-2.4,1.6v-1.6h-3.9v15.7h3.9v-6.3c0-1.6,0.1-2.7,0.2-3.2
                c0.2-0.9,0.6-1.7,1.2-2.2c0.6-0.5,1.3-0.8,2-0.8c0.6,0,1.1,0.2,1.5,0.5c0.4,0.4,0.8,0.8,0.9,1.4c0.2,0.6,0.3,1.9,0.3,3.7v6.9h3.9
                V20.7c0-1.8-0.5-3.2-1.4-4.1C127.3,15.6,125.9,15,124.4,15"></path>
            <path fill="#FFF" d="M142.8,26.5c-1.7,1.7-4.4,1.7-6.1,0c0,0,0,0,0,0c-0.8-0.8-1.2-1.9-1.2-3.3c0-1.3,0.4-2.4,1.2-3.3
                c0.8-0.8,1.9-1.3,3.1-1.3c1.3,0,2.3,0.4,3.1,1.3c0.8,0.8,1.2,1.9,1.2,3.3C144,24.6,143.6,25.7,142.8,26.5 M143.8,16.1
                c-1.3-0.7-2.7-1.1-4.2-1.1c-2,0-4,0.8-5.4,2.1c-1.8,1.6-2.7,3.7-2.7,6.1c0,2.2,0.8,4.3,2.4,5.8c1.5,1.6,3.6,2.4,5.8,2.4
                c1.5,0,2.9-0.4,4.2-1.1c1.3-0.7,2.3-1.8,3-3c0.7-1.3,1.1-2.7,1.1-4.1C148,20.3,146.4,17.5,143.8,16.1"></path>
            <path fill="#FFF" d="M159.2,22.7c-0.6-0.3-1.3-0.6-2-0.7c-0.7-0.2-1.4-0.3-2-0.5c-0.5-0.1-1-0.3-1.5-0.5c-0.4-0.2-0.6-0.6-0.6-1
                c0-0.5,0.3-1,0.7-1.3c0.5-0.3,1-0.4,1.5-0.4c1.2,0,2.3,0.6,2.7,1.2l3-1.7c-0.6-1-1.5-1.7-2.6-2.1c-1.7-0.6-3.5-0.7-5.2-0.2
                c-0.7,0.2-1.4,0.5-2,0.9c-1.2,0.9-1.9,2.3-1.9,3.8c0,1,0.2,1.8,0.6,2.3c0.4,0.6,0.9,1,1.5,1.3c0.6,0.3,1.3,0.5,2,0.7
                c0.7,0.1,1.4,0.3,2,0.5c0.5,0.1,1,0.3,1.5,0.6c0.4,0.3,0.6,0.7,0.6,1.2c0,0.3-0.1,0.6-0.2,0.8c-0.2,0.2-0.4,0.4-0.6,0.6
                c-0.3,0.2-0.5,0.3-0.8,0.3c-0.3,0.1-0.6,0.1-0.9,0.1c-0.7,0-1.4-0.2-2-0.5c-0.5-0.3-0.9-0.6-1.2-1l-3.1,1.8c0.8,1,1.8,1.7,2.9,2.2
                c1,0.4,2.1,0.5,3.3,0.5c0.8,0,1.6-0.1,2.3-0.3c0.7-0.2,1.5-0.4,2.1-0.8c0.6-0.4,1.1-0.9,1.5-1.5c0.4-0.7,0.6-1.5,0.6-2.4
                c0-1-0.2-1.8-0.6-2.4C160.4,23.5,159.8,23,159.2,22.7"></path>
            <path fill="#FFF" d="M179.7,18.5l-1.2-3.1h-3.3v-4.9l-3.8,2.2v2.7h-2.3v3.1h2.3v7.9c0,1.5,0.4,2.7,1.2,3.5c0.8,0.9,2,1.3,3.6,1.3
                c1.1,0,2.2-0.1,3.2-0.4l-1.2-3.1c0,0-0.1,0-0.1,0c-0.4,0-0.7,0-1.1,0c-0.6,0-1-0.1-1.3-0.4s-0.4-0.7-0.4-1.3v-7.6H179.7z"></path>
            <path fill="#FFF" d="M192.5,15.4l-3.9,11.3l-4.1-11.3h-4.1l6.2,15.6l-0.9,2.2c-0.1,0.4-0.4,0.7-0.8,0.9c-0.3,0.2-0.7,0.2-1,0.2
                c-0.2,0-0.4,0-0.5,0s-0.3,0-0.5,0c-0.2,0-0.3,0-0.5-0.1c-0.2,0-0.3-0.1-0.5-0.1l1.3,3.4c0.5,0.1,1,0.1,1.5,0.1
                c0.6,0,1.2-0.1,1.8-0.3c0.5-0.2,1-0.5,1.3-0.9c0.4-0.4,0.7-0.8,1-1.2c0.3-0.5,0.5-1,0.7-1.5l6.9-18.3H192.5z"></path>
            <polygon fill="#FFF" points="58.4,27.2 58.4,9.9 54.4,9.9 54.4,31.1 67.6,31.1 67.6,27.2 		"></polygon>
        </g>
    </g>
</svg>