<svg xmlns="http://www.w3.org/2000/svg" viewBox="0 0 45 45"><g
    fill="#61DAFB"
>
<path fill="#E83F3C" d="M23.7,6.6v27.9l-10.2,5.9c-0.7,0.4-1.6,0.2-1.9-0.5c-0.1-0.2-0.2-0.4-0.2-0.7V1.9c0-0.8,0.7-1.4,1.5-1.4c0.2,0,0.5,0.1,0.7,0.2L23.7,6.6z"></path>
<path fill="#FFCA00" d="M23.7,6.6v27.9l10.2,5.9c0.7,0.4,1.6,0.2,2-0.5c0.1-0.2,0.2-0.4,0.2-0.7V1.9c0-0.8-0.7-1.4-1.5-1.4c-0.2,0-0.5,0.1-0.7,0.2L23.7,6.6z"></path>
<path fill="#0073BB" d="M36,34.5V6.5h6.2c0.8,0,1.4,0.6,1.4,1.4l0,0V33c0,0.8-0.6,1.4-1.4,1.4H36z"></path>
<path fill="#CE132E" d="M11.3,34.5V6.5H5.1C4.3,6.5,3.7,7.2,3.7,8c0,0,0,0,0,0V33c0,0.8,0.6,1.4,1.4,1.4c0,0,0,0,0,0H11.3z"></path>
</g>
</svg>


